<svg version="1.2" xmlns="http://www.w3.org/2000/svg" viewBox="0 0 798 424" width="798" height="424">
	<title>logo  a-svg</title>
	<style>
		.s0 { fill: #203c37 } 
		.s1 { fill: #4b8e84 } 
		.s2 { fill: #edb524 } 
		.s3 { fill: none } 
	</style>
	<g id="Layer">
		<g id="Layer">
			<path id="Layer" class="s0" d="m110.3 236.3v90.4h20.6v32.7h-21q-0.3 5.2-2.9 14.2-2.6 9-7 16-4.4 7.1-10.4 12.1-5.9 5-12.9 8.3-7 3.4-14.4 5.2-7.4 1.9-15.1 2.7-7.6 0.8-15.4 1-7.8 0.1-22.1 0.1v-32.5q12.7 0 18.4 0 5.7-0.1 10.8-0.6 5.1-0.5 9.2-1.4 4.2-0.8 7.3-2.3 2.7-1.3 5.1-3.5 2.3-2.2 4.1-5.7 1.9-3.5 3.1-8.7 1.2-5.2 1.6-12.3v-115.7z"/>
			<path id="Layer" fill-rule="evenodd" class="s0" d="m308.8 326.7h23.9v32.7h-209.6v-32.7h25.4v-90.7h40.7l-0.1 31.1q5.7-17.9 17-27.5 11.2-9.5 28.1-13.2 2.7-0.1 5.3-0.1 6 0 12.1 0.6 8.6 1.1 16.7 3.9 8.5 2.9 15.9 7.6 7.5 4.8 13 11.6 5.5 6.8 8.8 15.6 3.3 8.8 3.6 19.7v2.4q0 0.7 0.1 1.7v28.6q0 4.6-0.9 8.7zm-119.5 0h75.2q0.3 0 1.6-1.1 1.3-1.3 2-3.2 0.8-1.9 0.8-4.4v-26.2q0-1.3 0-2.8-0.1-1.5-0.1-3-0.3-5.5-1.6-9.7-1.3-4.2-3.5-7.3-2.2-3.1-5.2-5.1-3-2-6.5-3.3-3.2-1-7-1.4-2.6-0.4-5.2-0.4-1.3 0-2.7 0.1-20 1.1-33.6 15.6-13.6 14.4-14.2 33z"/>
			<path id="Layer" class="s0" d="m342.6 229.8q21.6-4.7 33.1-4.7 2 0 3.8 0.1 13.1 0.6 23.7 4.7 10.6 4 18.8 11.3 8.2 7.3 14.2 17 4.5 7.5 7.8 16 3.3 8.5 5.9 17.9 2.5 9.4 4.3 19.5 1.8 10 2.8 15.1h18.9v32.6h-151v-32.6h90.7q-0.2-1.8-1.9-10.7-1.7-8.9-3.8-16.8-2.1-8-4.6-14.6-2.5-6.6-5.8-11.9-2.8-4.4-6.3-7.6-3.4-3.2-7.9-5-4.5-1.7-10.1-2h-2q-5.5 0-17.5 2.5z"/>
			<path id="Layer" class="s0" d="m540.6 185.6v132.4q0 8.2-3.1 15.4-3.2 7.1-8.5 12.4-6.3 6.4-14.9 10-8.7 3.6-18.8 3.6h-27.2v-32.7h27.3q0.3 0 1.6-1.1 1.3-1.3 2.1-3.2 0.7-1.9 0.7-4.4v-132.4z"/>
			<path id="Layer" class="s0" d="m607.4 185.6v172.3h-40.8v-172.3z"/>
		</g>
	</g>
	<g id="Layer">
		<path id="Layer" class="s1" d="m792.7 7.2v100.2h-36.7v-64.1h-36.6v28.9h-26.9v-65z"/>
		<path id="Layer" class="s2" d="m719.4 107.6v64.8h-95.5v-100.2h32.1v65.6h36.5v-30.2z"/>
		<g id="Layer">
			<path id="Layer" class="s3" d="m719.4 107.6h-26.9"/>
		</g>
	</g>
</svg>