<svg id="Layer_1" enable-background="new 0 0 64 64" height="512" viewBox="0 0 64 64" width="512" xmlns="http://www.w3.org/2000/svg"><g><circle cx="32" cy="32" fill="#507cbd" r="32"/><g><g fill="#fff"><path d="m32 9.3c-12.5 0-22.7 10.2-22.7 22.7s10.2 22.7 22.7 22.7 22.7-10.2 22.7-22.7-10.2-22.7-22.7-22.7zm0 41.7c-10.5 0-19-8.5-19-19s8.5-19 19-19 19 8.5 19 19-8.5 19-19 19z"/><path d="m32 14.3c-9.7 0-17.7 7.9-17.7 17.7 0 9.7 7.9 17.7 17.7 17.7s17.7-8 17.7-17.7-8-17.7-17.7-17.7zm-14.7 18.4h-1.4c-.4 0-.7-.3-.7-.7s.3-.7.7-.7h1.4c.4 0 .7.3.7.7s-.3.7-.7.7zm14-16.8c0-.4.3-.7.7-.7s.7.3.7.7v1.4c0 .4-.3.7-.7.7s-.7-.3-.7-.7zm-9.2 27-1 1c-.1.1-.3.2-.5.2s-.4-.1-.5-.2c-.3-.3-.3-.7 0-1l1-1c.3-.3.7-.3 1 0s.3.7 0 1zm0-20.8c-.1.1-.3.2-.5.2s-.4-.1-.5-.2l-1-1c-.3-.3-.3-.7 0-1s.7-.3 1 0l1 1c.3.3.3.7 0 1zm10.6 26c0 .4-.3.7-.7.7s-.7-.3-.7-.7v-1.4c0-.4.3-.7.7-.7s.7.3.7.7zm6.9-15.4h-5.4c-.3 1-1.2 1.7-2.3 1.7-1.3 0-2.4-1.1-2.4-2.4 0-1.1.7-2 1.7-2.3v-8.7c0-.4.3-.7.7-.7s.7.3.7.7v8.8c.8.2 1.3.8 1.6 1.6h5.4c.4 0 .7.3.7.7 0 .3-.3.6-.7.6zm4.3 11.2c-.1.1-.3.2-.5.2s-.4-.1-.5-.2l-1-1c-.3-.3-.3-.7 0-1s.7-.3 1 0l1 1c.3.3.3.7 0 1zm0-22.8-1 1c-.1.1-.3.2-.5.2s-.4-.1-.5-.2c-.3-.3-.3-.7 0-1l1-1c.3-.3.7-.3 1 0s.3.7 0 1zm4.2 11.6h-1.4c-.4 0-.7-.3-.7-.7s.3-.7.7-.7h1.4c.4 0 .7.3.7.7s-.3.7-.7.7z"/><path d="m32 31c-.5 0-1 .4-1 1s.5 1 1 1 1-.4 1-1c0-.5-.5-1-1-1z"/></g></g></g></svg>