<svg id="Layer_1" enable-background="new 0 0 64 64" height="512" viewBox="0 0 64 64" width="512" xmlns="http://www.w3.org/2000/svg"><g><circle cx="32" cy="32" fill="#ee3f3f" r="32"/><g><g fill="#fff"><path d="m53.3 10.7c-2.9-2.9-9.2-1-14.3 4.1-1.4 1.4-2.6 3-3.5 4.6l1.5.2c.8-1.3 1.8-2.6 3-3.8 4.5-4.5 10.1-6.4 12.3-4.1 2.2 2.2.3 7.9-4.1 12.4-1.2 1.2-2.5 2.2-3.8 3l.2 1.5c1.6-.9 3.2-2.1 4.6-3.5 5.2-5.3 7-11.6 4.1-14.4z"/><path d="m38.5 30.5h-.1c-.1.2-.3.4-.5.6-.7.7-1.6 1-2.5 1s-1.8-.3-2.5-1c-1.4-1.4-1.4-3.6 0-5 .3-.3.7-.5 1-.7h.1c.1 0 .2-.1.3-.1s.2-.1.3-.1h.3.3c.3 0 .5 0 .8.1.1 0 .2 0 .2.1.4.1.8.3 1.2.6.1.1.2.2.3.2.7.7 1 1.5 1 2.5v.4c1.3-.1 2.7-.5 4.2-1.3l-.9-6-6.4-1h-.2l-6-.9-19.9 20.2c-.1.1-.2.3-.2.5s.1.4.2.5l13.4 13.4c.3.3.8.3 1 0l20.1-20.1-.8-5.1c-1.6.8-3.2 1.2-4.7 1.2zm-3.3 8.9-10.7 10.7c-.1.1-.3.2-.5.2s-.4-.1-.5-.2l-9.6-9.6c-.3-.3-.3-.7 0-1l10.7-10.7c.3-.3.7-.3 1 0l9.6 9.6c.1.1.2.3.2.5s-.1.4-.2.5z"/><path d="m33.7 27.3c-.7.8-.7 2.1.1 2.8.8.8 2 .8 2.8.1-.7-.2-1.4-.6-1.9-1.1-.4-.4-.7-1.1-1-1.8z"/><path d="m37.4 28.7c0-.6-.2-1.1-.6-1.5s-.9-.6-1.5-.6c-.1 0-.2 0-.3 0 .1.6.4 1.2.8 1.6s.9.7 1.6.8c0-.1 0-.2 0-.3z"/><path d="m15.4 40 8.6 8.6 9.7-9.7-8.6-8.6zm9.4 5c-.1.1-.3.2-.5.2s-.4-.1-.5-.2l-4.8-4.8c-.3-.3-.3-.7 0-1s.7-.3 1 0l4.8 4.8c.3.3.3.8 0 1zm2.7-2.6c-.1.1-.3.2-.5.2s-.4-.1-.5-.2l-4.8-4.8c-.3-.3-.3-.7 0-1s.7-.3 1 0l4.8 4.8c.2.2.2.7 0 1zm2.6-3.7c.3.3.3.7 0 1-.1.1-.3.2-.5.2s-.4-.1-.5-.2l-4.8-4.8c-.3-.3-.3-.7 0-1s.7-.3 1 0z"/></g></g></g></svg>