<svg id="Layer_1" enable-background="new 0 0 64 64" height="512" viewBox="0 0 64 64" width="512" xmlns="http://www.w3.org/2000/svg"><g><circle cx="32" cy="32" fill="#5766ae" r="32"/><g><g fill="#fff"><path d="m48 24c-.8-.7-1.7-1.5-2-2.4-.3-1-.1-2.1.2-3.2.2-1 .5-2.1.1-2.6s-1.5-.6-2.6-.7-2.3-.2-3.1-.8-1.3-1.6-1.7-2.7c-.4-1-.9-2-1.5-2.2-.5-.2-1.4.3-2.4.9s-2 1.2-3 1.2-2.1-.6-3-1.2c-.9-.5-1.9-1.1-2.4-.9-.6.2-1.1 1.2-1.5 2.2s-.9 2.1-1.7 2.7-2 .7-3.1.8-2.2.2-2.6.7-.1 1.6.1 2.6c.2 1.1.5 2.2.2 3.2-.3.9-1.2 1.7-2 2.4s-1.7 1.5-1.7 2.2.9 1.4 1.7 2.1 1.7 1.5 2 2.4c.3 1 .1 2.1-.2 3.2-.2 1-.5 2.1-.1 2.6s1.5.6 2.6.7 2.3.2 3.1.8 1.3 1.6 1.7 2.7c.4 1 .9 2 1.5 2.2.5.2 1.3-.2 2.1-.7.1 0 .1-.1.2-.1s.1-.1.1-.1c1-.6 2-1.2 3-1.2s2.1.6 3 1.2c0 0 .1 0 .1.1.1 0 .1.1.2.1.8.5 1.6.9 2.1.7.6-.2 1.1-1.2 1.5-2.2s.9-2.1 1.7-2.7 2-.7 3.1-.8 2.2-.2 2.6-.7.1-1.6-.1-2.6c-.2-1.1-.5-2.2-.2-3.2.3-.9 1.2-1.7 2-2.4s1.7-1.5 1.7-2.1c0-.7-.9-1.4-1.7-2.2zm-16 13.9c-6.5 0-11.7-5.3-11.7-11.7 0-6.5 5.3-11.7 11.7-11.7 6.5 0 11.7 5.3 11.7 11.7 0 6.5-5.2 11.7-11.7 11.7z"/><path d="m32 16c-5.7 0-10.2 4.6-10.2 10.2s4.5 10.3 10.2 10.3c5.6 0 10.2-4.6 10.2-10.2s-4.5-10.3-10.2-10.3zm5.7 7-7.5 7.5c-.1.1-.3.2-.5.2s-.4-.1-.5-.2l-2.9-2.9c-.3-.3-.3-.8 0-1 .3-.3.8-.3 1 0l2.4 2.4 6.9-6.9c.3-.3.8-.3 1.1 0 .3.1.3.6 0 .9z"/><path d="m26.1 44.5c-1.3-.4-1.8-1.8-2.4-3.1-.4-.8-.7-1.7-1.2-2.1-.1-.1-.3-.2-.6-.3l-4.8 13.2 3.7-.8c.3-.1.5 0 .7.2l2.5 3 3.7-10.3c-.5.3-1.1.3-1.6.2z"/><path d="m41.5 39.3c-.5.3-.8 1.2-1.2 2.1-.6 1.3-1.1 2.6-2.4 3.1-.2.1-.5.1-.7.1-.3 0-.7-.1-1-.2l3.8 10.3 2.5-3c.2-.2.5-.3.7-.2l3.7.8-4.8-13.2c-.2 0-.4.1-.6.2z"/></g></g></g></svg>